/* XPM */
static char *AD_CIVIL[]={
"15 15 2 1",
". c None",
"# c #ffffff",
".......#.......",
".......#.......",
".....#####.....",
"....#.....#....",
"...#.......#...",
"..#.........#..",
"..#.........#..",
"###.........###",
"..#.........#..",
"..#.........#..",
"...#.......#...",
"....#.....#....",
".....#####.....",
".......#.......",
".......#......."};
