/* XPM */
static char *AD_JOINT[]={
"15 15 2 1",
". c None",
"# c #ffffff",
".......#.......",
".......#.......",
".....#####.....",
"....#.....#....",
"...#..###..#...",
"..#..#...#..#..",
"..#.#.....#.#..",
"###.#.....#.###",
"..#.#.....#.#..",
"..#..#...#..#..",
"...#..###..#...",
"....#.....#....",
".....#####.....",
".......#.......",
".......#......."};
