/* XPM */
static char *AD_MIL[]={
"15 15 2 1",
". c None",
"a c #ffffff",
"...............",
"...............",
".....aaaaa.....",
"....a.....a....",
"...a..aaa..a...",
"..a..a...a..a..",
"..a.a.....a.a..",
"..a.a.....a.a..",
"..a.a.....a.a..",
"..a..a...a..a..",
"...a..aaa..a...",
"....a.....a....",
".....aaaaa.....",
"...............",
"..............."};
