/* XPM */
static char *NoName[]={
"15 15 2 1",
"# c #000000",
"$ c #ffffff",
"###############",
"###############",
"#######$#######",
"######$$$######",
"#####$$$$$#####",
"####$$$$$$$####",
"###$$$$$$$$$###",
"##$$$$$$$$$$$##",
"###$$$$$$$$$###",
"####$$$$$$$####",
"#####$$$$$#####",
"######$$$######",
"#######$#######",
"###############",
"###############"};