/* XPM */
static char *NoName[]={
"15 15 2 1",
"# c #ffffff",
"$ c #ff0000",
"####$$$$$$#####",
"###$$$$$$$$####",
"##$$$$$$$$$$###",
"#$$$$$$$$$$$$##",
"#$$$$$$$$$$$$##",
"$$$$$$$$$$$$$$#",
"$$$$$$$$$$$$$$#",
"$$$$$$$$$$$$$$#",
"$$$$$$$$$$$$$$#",
"$$$$$$$$$$$$$$#",
"$$$$$$$$$$$$$$#",
"#$$$$$$$$$$$$##",
"#$$$$$$$$$$$$##",
"##$$$$$$$$$$###",
"###$$$$$$$$####"};