/* XPM */
static char *VORDME[]={
"15 15 2 1",
". c None",
"a c #ffffff",
"...............",
"...............",
"aaaaaaaaaaaaaaa",
"a...a.....a...a",
"a..a.......a..a",
"a.a.........a.a",
"aa...........aa",
"aa.....a.....aa",
"aa...........aa",
"a.a.........a.a",
"a..a.......a..a",
"a...a.....a...a",
"aaaaaaaaaaaaaaa",
"...............",
"..............."};
