/* XPM */
static char *VORTAC[]={
"15 15 2 1",
". c None",
"a c #ffffff",
"...............",
"..aa.......aa..",
".aaaaaaaaaaaaa.",
"aaaaa.....aaaaa",
"aaaa.......aaaa",
".aa.........aa.",
"..a.........a..",
"..a....a....a..",
"...a.......a...",
"...a.......a...",
"....a.....a....",
"....a.....a....",
".....aaaaa.....",
".....aaaaa.....",
".....aaaaa....."};
